<svg xmlns="http://www.w3.org/2000/svg" viewBox="117.1 73.1 1133.9 603"><g transform="translate(279.123 -226.674)"><linearGradient id="a" x1="111.702" x2="108.217" y1="614.262" y2="1165.453" gradientUnits="userSpaceOnUse" gradientTransform="matrix(1 0 0 -1 279.123 1390.942)"><stop offset="0" stop-color="#7293B8" stop-opacity=".6"/><stop offset="1" stop-color="#F6FFFF"/></linearGradient><path fill="url(#a)" d="M-222 226.7h1222.2v549.2H-222z"/><linearGradient id="b" x1="109.087" x2="111.659" y1="399.865" y2="655.679" gradientUnits="userSpaceOnUse" gradientTransform="matrix(1 0 0 -1 279.123 1390.942)"><stop offset="0" stop-color="#414413"/><stop offset="1" stop-color="#577917"/></linearGradient><path fill="url(#b)" d="M1001.4 740l-1223.5-3.5.2 251.6 1223 .2.3-248.3z"/><path fill-opacity=".5" d="M-71.3 787.3l-42.2-2.9s-6 .7-13.3-2.1c-7.4-2.9-26.5-15.7-30.3-18.8s-32.9-24.3-32.9-24.3l5-.5s48.6 32.4 52.2 34.3c3.6 1.9 13.3 7.2 16.7 7.6 3.3.5 69.3-3.1 69.3-3.1l-.7 8.5-23.8 1.3z"/><linearGradient id="c" x1="40.319" x2="41.467" y1="539.908" y2="582.322" gradientUnits="userSpaceOnUse" gradientTransform="matrix(1 0 0 -1 279.123 1390.942)"><stop offset="0" stop-color="#7293B8"/><stop offset="1" stop-color="#F6FFFF"/></linearGradient><path fill="url(#c)" d="M640.2 834.5s-15.3 1.7-29.1 7.4-45.3 8.3-45.3 8.3-58.9-.5-70.3-.7-68.6-1-77.5-1-51.5-.5-60.5-.5c-9.1 0-58.2-.2-78.4-1.2-20.3-1-61-6-76.3-6.7-15.3-.7-85.1-5-107-5.2s-64.6 1-64.6 1l-31.7-1 10.7-6.7 202.8 1 170.7 1.7 195 .7s57.3-1.6 61.5 2.9z"/><linearGradient id="d" x1="618.169" x2="618.23" y1="549.881" y2="559.639" gradientUnits="userSpaceOnUse" gradientTransform="matrix(1 0 0 -1 279.123 1390.942)"><stop offset="0" stop-color="#7293B8"/><stop offset="1" stop-color="#F6FFFF"/></linearGradient><path fill="url(#d)" d="M964.7 839.7s-22.6.2-35.5-.2c-12.9-.5-28.4-1.2-36-1.2-7.6 0-27.4-.7-32.4-.5s-30.7-3.3-30.7-3.3l124.2-2.1 10.4 7.3z"/><path fill-opacity=".5" d="M928.4 790.9l40-1.2s10.2.5 16-1.9 17.2-10.5 17.2-10.5l-.5-16-15.7 10s-47.4-2.6-48.4-2.9c-1-.2-22.2-3.8-22.2-3.8l1.4 18.8 12.2 7.5z"/><path fill="#1A1A1A" d="M926 781.3l-250.3.2-314.4-1.4-235-1.9-172.6-.5-.2 21.9 127 2.6 35-14.1 287.5 1.7 233.6 1.7 118.1.9 13.7 1 30.4 4.4 126.7-7.8.5-8.7z"/><linearGradient id="e" x1="624.084" x2="624.764" y1="259.367" y2="315.137" gradientUnits="userSpaceOnUse" gradientTransform="matrix(1 0 0 -1 279.123 1082.674)"><stop offset="0" stop-color="#7293B8"/><stop offset="1" stop-color="#F6FFFF"/></linearGradient><path fill="url(#e)" d="M1000.9 823.1L900.5 806l-54.1-3.4-.5-1.2-40.1-10h120.7l74.2 10v21.7z"/><linearGradient id="f" x1="354.082" x2="354.311" y1="572.428" y2="616.908" gradientUnits="userSpaceOnUse" gradientTransform="matrix(1 0 0 -1 279.123 1390.942)"><stop offset="0" stop-color="#7293B8"/><stop offset="1" stop-color="#F6FFFF"/></linearGradient><path fill="url(#f)" d="M367.3 816.9l15-.2L410 811l137.5-3.3 101.1-4.3 29.3-2.6 7.2-2.9 28.1-1.9 13.3-1.7s12.9-3.4 20.8-3.9 15.9 2.5 15.9 2.5l135.9 25.3-230.3 1-301.5-2.3z"/><path fill="#333" d="M952.7 832.8l-160.4 1.4-317.7-.7-308.4-2.6L10 829.5l-9.5 5.2-14.1-5.2L6 825.2l192.6 1.7 327 2.6 322.3-.7 104.6-1 .2 5z"/><path fill="#6F6F71" d="M69.3 799.9l-50.6 18 905.9 2.3-89.6-17.1h47.9l105.5 18.7 13 1.7.2 7-51.7-3-169.9 1.2-173.8-.3-211.8-.2-176.5-1.1-159.7-1.5-61.1-.5-15.6 2.4-39.7 2-116 2.6-104.8 2.6-.1-4.5 120.6-2.1 90.5-5.2 45.2-11.7 37.2-11.1 4.4-1.5 50.5 1.3z"/><linearGradient id="g" x1="-384.83" x2="-384.865" y1="558.685" y2="603.832" gradientUnits="userSpaceOnUse" gradientTransform="matrix(1 0 0 -1 279.123 1390.942)"><stop offset="0" stop-color="#B4B4B4"/><stop offset="1" stop-color="#333"/></linearGradient><path fill="url(#g)" d="M67.3 787.3c-48.8 12-138 37.9-144.9 38.5-15.9 1.3-201.5 4.8-201.5 4.8v1.7s183.1-2.6 201.6-4.7 103.1-28 103.5-28.1l41.7.7-.4-12.9z"/><path fill="#917E6D" d="M76.7 798.8l-9.6.2-57.5 19.2s-.5.5 0 1.2c.1.4.6.5 1.5.5s222.9 2.7 449 3.4c122.1.4 245.2 1.2 335.6 1 83.7-.2 139.4-1.4 139.4-1.4s1.1 0 2-.3c.9-.3-2.1-1.7-2.1-1.7l-96.4-18.2-14.4.2 83.1 14.7-217.6.5-235-.3-215.6-1.2-165.6-1.4-39.7-.8 42.9-15.6z"/><linearGradient id="h" x1="-147.306" x2="-147.798" y1="574.7" y2="629.088" gradientUnits="userSpaceOnUse" gradientTransform="matrix(1 0 0 -1 279.123 1390.942)"><stop offset="0" stop-color="#7293B8"/><stop offset="1" stop-color="#F6FFFF"/></linearGradient><path fill="url(#h)" d="M236.9 816.6l-52.1-5.6.2-2.9 13.8-5.2-33.6-6.4-30.7-5 2.7-2.9-27.4-1.2-83 28.1 210.1 1.1z"/><linearGradient id="i" x1="-367.429" x2="-366.017" y1="564.267" y2="632.763" gradientUnits="userSpaceOnUse" gradientTransform="matrix(1 0 0 -1 279.123 1390.942)"><stop offset="0" stop-color="#7293B8"/><stop offset="1" stop-color="#F6FFFF"/></linearGradient><path fill="url(#i)" d="M60.5 787.8l-105.8-2.1-16.2.2-174.7 34.1 91.3 8.3 69.4-3.3 136-37.2z"/><path fill="#333" d="M-49.6 779.2l-.2 5-21.7-.2.3 3.6-171.5 31.4 8.3 1.2 177.1-33.4h12.2l.5-7.4-5-.2zM917.2 780l.1-37.6-982.9-4.6-.3 39.4 983.1 2.8z"/><path fill="none" stroke="gray" d="M25.7 739l-.4 37.6M35.6 738.1l-.1 38.7M46.3 737.9l-.6 38.9M15.1 751.5h10.6m10.2 0h10.4M15.1 770.5l10.3.1m10.1 0l10.1.1M25.5 745.5l10.1.2m10.3 0l10.4.2M25.4 765h9.8m10.3 0h11.1M56.4 738.4l-.2 37.9M-16.8 739.4l-.4 37.6M-6.6 738.6l-.1 38.7M4.5 738.3l-.6 38.9M-27.9 751.9h11m10.6 0H4.5M-27.9 770.9l10.7.1m10.6 0l10.5.1M-17 745.9l10.5.2m10.6 0l10.8.2M-17.1 765.4h10.2m10.6 0h11.6M15.1 738.8l-.2 37.9M-58.9 739l-.4 37.6M-49.1 738.1l-.1 38.7M-38.3 737.9l-.6 38.9M-67.5 751.5h8.6m10.2 0h10.4M-67.5 770.5l8.3.1m10.1 0l10.1.1M-59.1 745.5l10.1.2m10.3 0l10.4.2M-59.2 765h9.8m10.3 0H-28M-28.2 738.4l-.2 37.9M66 739.4l-.3 37.6M75.7 738.6l-.1 38.7M86.2 738.3l-.6 38.9M55.6 751.9H66m10 0h10.2M55.6 770.9l10.1.1m10 0l9.9.1M65.9 745.9l9.9.2m10 0l10.2.2M65.8 765.4h9.6m10 0h10.9M96.1 738.8l-.2 37.9M106.6 739.7l-.4 37.6M116.2 738.9l-.1 38.7M126.7 738.6l-.6 38.9M96.2 752.2h10.4m9.9 0h10.2M96.2 771.2l10.1.1m9.9 0l9.9.1M106.4 746.3l9.9.2m10 0l10.2.2M106.3 765.7h9.6m10.1 0h10.9M136.7 739.1l-.2 37.9M147.2 740.3l-.4 37.6M157 739.4l-.1 38.7M167.8 739.1l-.6 38.9M136.5 752.7h10.6m10.3 0h10.4M136.5 771.7l10.3.1m10.2.1l10.1.1M147 746.8l10.1.2m10.3 0l10.4.2M146.9 766.3h9.9m10.2 0h11.2M177.9 739.7l-.2 37.9M188.5 740.4l-.4 37.6M198.3 739.5l-.1 38.7M209 739.2l-.6 38.9M177.9 752.8h10.5m10.3 0H209M177.9 771.8l10.2.1m10.2.1l10.1.1M188.3 746.9l10.1.2m10.2 0l10.3.2M188.3 766.4h9.8m10.2 0h11.1M219.1 739.8l-.2 37.9M229.7 740.6l-.4 37.6M239.5 739.7l-.1 38.7M250.2 739.5l-.6 38.9M219.1 753.1h10.5m10.2 0h10.4M219.1 772.1l10.2.1m10.2 0l10.1.1M229.5 747.1l10.1.2m10.2 0l10.3.2M229.4 766.6h9.8m10.2 0h11.1M260.3 740l-.2 37.9M260.3 771.8l10.2.1M260.3 752.9h10.5M907.6 742.4l-.4 37.6M896.9 754.9h10.6M896.8 773.9l10.3.1M907.4 748.9l10.2.2M907.3 768.4h9.9M917.4 741.5l-.1 38.7M746.8 742.7l-.3 37.6M756.2 741.9l-.1 38.7M766.4 741.6l-.6 38.9M736.7 755.2h10.1m9.7 0h9.9M736.7 774.2l9.8.1m9.7 0l9.6.1M746.7 749.2l9.7.2m9.7 0l9.9.2M746.6 768.7h9.4m9.7 0h10.6M776.1 742.1l-.2 37.9M786.4 742.9l-.3 37.6M795.7 742.1l-.1 38.7M805.8 741.8l-.6 38.9M776.3 755.4h10m9.7 0h9.8M776.3 774.4l9.7.1m9.7 0l9.6.1M786.2 749.4l9.6.2m9.6.1l9.8.2M786.1 768.9h9.3m9.7 0h10.5M815.4 742.3l-.2 37.9M825.6 742.4l-.3 37.6M835 741.5l-.1 38.7M845.2 741.3l-.6 38.9M815.5 754.9h10.1m9.7 0h9.9M815.4 773.9l9.8.1m9.8 0l9.6.1M825.4 748.9l9.7.2m9.7 0l9.9.2M825.3 768.4h9.4m9.8 0h10.6M854.9 741.8l-.2 37.9M865.6 742.6l-.4 37.6M875.5 741.8l-.1 38.7M886.3 741.5l-.6 38.9M855 755.1h10.6m10.2 0h10.4M854.9 774.1l10.3.1m10.3 0l10.2.1M865.4 749.1l10.2.2m10.3 0l10.4.2M865.3 768.6h9.9m10.3 0h11.2M896.5 742l-.2 37.9M707.1 743.1l-.3 37.6M716.5 742.3l-.1 38.7M726.7 742l-.6 38.9M697 755.6h10.1m9.7 0h9.9M697 774.6l9.8.1m9.7 0l9.6.1M707 749.7l9.7.2m9.7 0l9.9.2M706.9 769.1h9.4m9.7 0h10.6M736.4 742.5l-.2 37.9M667.5 742.9l-.3 37.6M677 742.1l-.1 38.7M687.3 741.8l-.6 38.9M657.2 755.4h10.2m9.9 0h10.1M657.2 774.4l9.9.1m9.9 0l9.8.1M667.3 749.4l9.8.2m9.9.1l10 .2M667.2 768.9h9.5m9.9 0h10.8M697.1 742.3l-.2 37.9M627.1 742.8l-.4 37.6M636.7 742l-.1 38.7M647.3 741.7l-.6 38.9M616.6 755.3H627m10 0h10.2M616.6 774.3l10.1.1m10 0l9.9.1M626.9 749.3l9.9.2m10.1.1l10.2.2M626.8 768.8h9.7m10 0h10.9M657.2 742.2l-.2 37.9M586.7 742l-.4 37.6M596.3 741.1l-.1 38.7M606.6 740.8l-.6 38.9M576.4 754.4h10.2m10 0h10.1M576.4 773.4l10 .1m9.8.1l9.8.1M586.5 748.5l9.8.2m10 0l10.1.2M586.4 768h9.5m10 0h10.8M616.5 741.4l-.2 37.9M546.2 742.6l-.4 37.6M555.9 741.8l-.1 38.7M566.4 741.5l-.6 38.9M535.8 755.1h10.4m10 0h10.2M535.7 774.1l10.1.1m10 0l9.9.1M546 749.1l9.9.2m10.1 0l10.2.2M545.9 768.6h9.7m10 0h10.9M576.3 742l-.2 37.9M505.7 742.5l-.4 37.6M515.5 741.7l-.1 38.7M526.1 741.4l-.6 38.9M495.1 755h10.5m10.2 0h10.3M495.1 774l10.2.1m10.1 0l10.1.1M505.5 749l10.1.2m10.1 0l10.3.2M505.4 768.5h9.8m10.1 0h11.1M536.2 741.9l-.2 37.9M464.9 742.1l-.4 37.6M474.6 741.2l-.1 38.7M485.1 740.9l-.6 38.9M454.4 754.5h10.4m10.1 0h10.2M454.4 773.5l10.1.1m10.1.1l10 .1M464.7 748.6l10 .2m10 0l10.3.2M464.6 768.1h9.7m10.1 0h11M495.1 741.5l-.2 37.9M423.7 741.9l-.4 37.6M433.5 741l-.1 38.7M444.2 740.7l-.6 38.9M413 754.3h10.6m10.2 0h10.4M413 773.3l10.3.1m10.2.1l10.1.1M423.5 748.4l10.1.2m10.2 0l10.4.2M423.4 767.9h9.8m10.2 0h11.1M454.3 741.3l-.2 37.9M382.9 741.4l-.4 37.6M392.6 740.6l-.1 38.7M403.1 740.3l-.6 38.9M372.5 753.9h10.4m10 0h10.2M372.5 772.9l10.1.1m10 0l9.9.1M382.7 748l9.9.2m10.1 0l10.2.2M382.7 767.4h9.7m9.9 0h10.9M413.1 740.8l-.2 37.9M340.2 741.3l-.4 37.6M350 740.5l-.1 38.7M360.7 740.2l-.6 38.9M329.6 753.8h10.5m10.2 0h10.4M329.6 772.8l10.2.1m10.2 0l10.1.1M340 747.9l10.1.2m10.2 0l10.3.2M339.9 767.3h9.8m10.2 0H371M370.8 740.7l-.2 37.9M319.5 740l-.6 38.9M298.7 767.1h9.8m10.2 0h11.1M308.8 740.3l-.1 38.7M309.1 753.6h10.4M329.6 740.5l-.2 37.9"/><path fill="#B3B3B3" d="M-71.8 774.9l1005.3 4.5v3.7l-1005.2-3.7-.1-4.5z"/><path fill="#F2F2F2" d="M-59 728.6l-137.6 5 467.6 4.7-14.3 54.9-3.2 5.6-5.8 18.1L353 818v-20.2l-4.7-21-37.4-.1-6.5 17.6 5.8-57 641.2 2.9 48.5-.6-67.2-2.6-64.6-5-910.9-3.2-16.2-.2z"/><path fill-opacity=".5" d="M303.9 793.7l44.3-16.9-37.2-.2-7.1 17.1z"/><linearGradient id="j" x1="-325.724" x2="-51.727" y1="689.424" y2="689.424" gradientUnits="userSpaceOnUse" gradientTransform="matrix(1 0 0 -1 279.123 1390.942)"><stop offset="0" stop-color="#ECECEC"/><stop offset="1" stop-color="#959595"/></linearGradient><path fill="url(#j)" d="M-46 728.6l272.8 1.8S169 672.8 95.4 672.8-46 728.6-46 728.6z"/><linearGradient id="k" x1="221.583" x2="575.327" y1="689.311" y2="689.311" gradientUnits="userSpaceOnUse" gradientTransform="matrix(1 0 0 -1 279.123 1390.942)"><stop offset="0" stop-color="#ECECEC"/><stop offset="1" stop-color="#959595"/></linearGradient><path fill="url(#k)" d="M586 731.2h184.7c28.3-7.2 55.8-31.1 83.3-55.8-116.6-3.5-233.9-4.7-352.7-1.2 28.5 28.4 56.8 48.9 84.7 57z"/><path fill="#999" d="M925.9 742.8h.9c.7 0 1.3.6 1.3 1.3v44.8c0 .7-.6 1.3-1.3 1.3h-.9c-.7 0-1.3-.6-1.3-1.3v-44.8c.1-.7.6-1.3 1.3-1.3zM866.1 743.4h.9c.7 0 1.3.6 1.3 1.3v45.5l-3.4-.1v-45.5c0-.6.5-1.2 1.2-1.2zM806.9 743.1h.9c.7 0 1.3.6 1.3 1.3l.1 46.7-3.4-.5v-46.3c-.2-.6.4-1.2 1.1-1.2zM746.2 742.8h.9c.7 0 1.3.6 1.3 1.3V790l-3.4.1v-46c-.1-.7.5-1.3 1.2-1.3zM684.7 742.8h.9c.7 0 1.3.6 1.3 1.3V792h-3.4v-47.8c-.1-.8.5-1.4 1.2-1.4zM623.5 742.8h.9c.7 0 1.3.6 1.3 1.3l-.1 47.4h-3.4l.1-47.4c-.1-.7.5-1.3 1.2-1.3zM560.8 743.1h.9c.7 0 1.3.6 1.3 1.3v46.7h-3.4v-46.7c0-.7.5-1.3 1.2-1.3zM498.8 742.5h.9c.7 0 1.3.6 1.3 1.3v46.8h-3.4v-46.8c-.1-.7.5-1.3 1.2-1.3zM435.5 743.1h.9c.7 0 1.3.6 1.3 1.3l-.1 45.8h-3.4l.1-45.8c0-.7.5-1.3 1.2-1.3zM373.7 741.7h.9c.7 0 1.3.6 1.3 1.3v46.8h-3.4V743c0-.7.5-1.3 1.2-1.3zM246.2 740.8h.9c.7 0 1.3.6 1.3 1.3V789H245v-46.9c-.1-.7.5-1.3 1.2-1.3zM183.8 740.8h.9c.7 0 1.3.6 1.3 1.3v46.6h-3.4v-46.6c0-.7.5-1.3 1.2-1.3zM120.3 740h.9c.7 0 1.3.6 1.3 1.3v46.3l-3.4-.1v-46.1c0-.8.5-1.4 1.2-1.4zM57.1 740h.9c.7 0 1.3.6 1.3 1.3v45.6l-3.4-.1v-45.5c-.1-.7.5-1.3 1.2-1.3zM-4.4 738.3h.9c.7 0 1.3.6 1.3 1.3l-.1 45.8-3.3-.1v-45.6c-.1-.8.5-1.4 1.2-1.4zM-66.2 738.3h.9c.7 0 1.3.6 1.3 1.3v44.5h-3.4v-44.5c-.1-.7.5-1.3 1.2-1.3z"/><linearGradient id="l" x1="-146.185" x2="-77.252" y1="593.553" y2="593.553" gradientUnits="userSpaceOnUse" gradientTransform="matrix(1 0 0 -1 279.123 1390.942)"><stop offset="0" stop-color="#ECECEC"/><stop offset="1" stop-color="#959595"/></linearGradient><path fill="url(#l)" d="M171.2 795.6c18.8 1.7 28.4 3.4 28.4 6.2 0 1.6-2.7 1.7-2.7 1.7-.1-1.4-3.4-2.3-26.1-4.5-28.5-2.8-36.3-4.6-36.3-4.6l-.1-3.3c.1.1 14.9 2.5 36.8 4.5z"/><linearGradient id="m" x1="-97.207" x2="-34.341" y1="579.831" y2="579.831" gradientUnits="userSpaceOnUse" gradientTransform="matrix(1 0 0 -1 279.123 1390.942)"><stop offset="0" stop-color="#ECECEC"/><stop offset="1" stop-color="#959595"/></linearGradient><path fill="url(#m)" d="M183.6 809.1l-.1 4.2c5.2 2.2 14 2.9 20.2 3l40.5.6s-25.3-3-38.1-3.9-21.1-1.9-21.1-3.9 7.3-3.7 7.3-3.7-8.1 2.3-8.7 3.7z"/><linearGradient id="n" x1="353.936" x2="354.065" y1="572.556" y2="600.734" gradientUnits="userSpaceOnUse" gradientTransform="matrix(1 0 0 -1 279.123 1390.942)"><stop offset="0" stop-color="#ECECEC"/><stop offset="1" stop-color="#959595"/></linearGradient><path fill="url(#n)" d="M746.8 790c-4.3.1-8.6.8-12.9 2h-.1-.1c-.2.1-7.6 1.7-8.7 1.8-1.4.2-12.8 1.2-23.2 2.2-8.5.8-16.6 1.6-17.8 1.8-1.7.3-4.8 1.4-6.8 1.8-1.3.3-3.6.7-11.7 1.2-9.1.5-32.1 2.1-56 3.4-23.2 1.3-52.5 1.7-75.8 1.9-24.8.3-49.6.2-74.3 1.1-21.7.7-47.9 2.6-52.3 3-11.1 1-32 7.4-48.2 7.2l23-.1c9-1.4 16.3-3.8 25.7-4.8 7.5-.8 37.2-2.2 52.1-2.8 15.1-.6 57.8-.9 74.2-1.2 17.7-.3 54.6-1.1 75.8-2.1 16.9-.8 40.8-2.7 55.9-3.9 6.6-.5 10.4-.9 11.8-1.3 2.1-.7 5.5-1.7 6.9-1.9 2.6-.5 10.3-1.2 17.6-2s19.8-1.8 23.2-2.3c2.6-.4 8.6-2 8.7-2h.1c9.7-2.5 18.2-.8 26.2.5l127 24.3 20.2-.3-147.1-26.4c-4.6-.8-9-1.2-13.4-1.1z"/><linearGradient id="o" x1="-138.754" x2="-249.076" y1="589.77" y2="589.899" gradientUnits="userSpaceOnUse" gradientTransform="matrix(1 0 0 -1 279.123 1390.942)"><stop offset="0" stop-color="#B3B3B3"/><stop offset="1" stop-color="#D9D9D9"/></linearGradient><path fill="url(#o)" d="M34 815.5l73.8-27.4 28.5 1.3.9-1-29.5-1.6-81.1 28.7H34z"/><linearGradient id="p" x1="-384.572" x2="-385.295" y1="558.322" y2="606.708" gradientUnits="userSpaceOnUse" gradientTransform="matrix(1 0 0 -1 279.123 1390.942)"><stop offset="0" stop-color="#ECECEC"/><stop offset="1" stop-color="#959595"/></linearGradient><path fill="url(#p)" d="M67.5 787l-112.4-2.8-.2 2.6 102.7 1.3-86.1 23.7s-35.7 10.3-46.7 12.1c-23.1 3.8-134.3 4.3-203.9 5.6v2s187.6-2.1 204.3-5.5c22.1-4.4 47.8-12.3 47.8-12.3L67.5 787z"/><path fill="#917E6D" d="M-1.5 824.3c-.6 0-1.4.1-2.2.2-3.2.5-9.4 1.8-14.6 2.6s-45.8 2.4-45.8 2.4l-215 4.4v2.1s265.3-6.1 269.6-6.4c4.2-.3 18.3-3 18.3-3l179.2 1.5 202.7 1.5 155.7.5 173.5-.5 131.3-.5 100.5-.6.8.1 38.8 9.7 9.6-1.6v-4.8h.2V829l-51.4-3-144.8 1.5-115.9.1H492.8l-127.4-.5-152.2-.6-188.8-2.1H1.7c0 .1-1.2-.2-3.2-.1z"/><linearGradient id="q" x1="603.379" x2="721.604" y1="585.925" y2="565.64" gradientUnits="userSpaceOnUse" gradientTransform="matrix(1 0 0 -1 279.123 1390.942)"><stop offset="0" stop-color="#B3B3B3"/><stop offset="1" stop-color="#D9D9D9"/></linearGradient><path fill="url(#q)" d="M1001.2 821.3l-118.4-19-35.7-.1v.9h35.6l118.6 20.9-.1-2.7z"/><linearGradient id="r" x1="518.273" x2="568.554" y1="594.757" y2="594.757" gradientUnits="userSpaceOnUse" gradientTransform="matrix(1 0 0 -1 279.123 1390.942)"><stop offset="0" stop-color="#B3B3B3"/><stop offset="1" stop-color="#D9D9D9"/></linearGradient><path fill="url(#r)" d="M847.3 803.1l-.2-5.9-49.1-7.8.2 7.3 35.5 6.4h13.6z"/><linearGradient id="s" x1="480.902" x2="552.019" y1="593.779" y2="593.779" gradientUnits="userSpaceOnUse" gradientTransform="matrix(1 0 0 -1 279.123 1390.942)"><stop offset="0" stop-color="#B3B3B3"/><stop offset="1" stop-color="#D9D9D9"/></linearGradient><path fill="url(#s)" d="M824.9 803.4L760 791.1l6.2-.2 67.7 12-9 .5z"/><linearGradient id="t" x1="712.34" x2="673.287" y1="556.746" y2="556.814" gradientUnits="userSpaceOnUse" gradientTransform="matrix(1 0 0 -1 279.123 1390.942)"><stop offset="0" stop-color="#B4B4B4"/><stop offset="1" stop-color="#1A1A1A"/></linearGradient><path fill="url(#t)" d="M991.5 838.2l-27.1 1.5-12.1-6.9.1-4.3 39.1 9.7z"/><path fill="#B3B3B3" d="M-196.2 733.7l5.1 5.7 461.1 2.1 1.4-5.2-467.6-2.6zm506.1 8l690.7 3.1v-4.5l-690.1-3.8-.6 5.2z"/><path fill="none" stroke="gray" d="M308.8 772.7l10.1.1M319.1 747.9l10.3.2"/><path fill="none" stroke="#999" stroke-width=".7" d="M9.3 819.9h1c15.6.9 31.4.8 47.1.9 14 .1 60 .7 74.4.7 15.1-.1 58.5.7 77 .7 14.9 0 77.6 1 103.4.9 59.8-.2 113.9.4 165.6.7 111 .7 212 1.5 340.5.8 24.8-.1 49.8-.4 74.6-.6 14-.2 28.3-.3 41.8-.8.8 0 2.4-.4 2.4-.4"/><linearGradient id="u" x1="622.73" x2="622.67" y1="295.039" y2="279.138" gradientUnits="userSpaceOnUse" gradientTransform="matrix(1 0 0 -1 279.123 1082.674)"><stop offset="0" stop-color="#B3B3B3"/><stop offset="1" stop-color="#D9D9D9"/></linearGradient><path fill="url(#u)" d="M1001.2 803l-.2-4.8-74.7-10.3-123.9 2.2 12.4 2 112.2-.5 74.2 11.4z"/><linearGradient id="v" x1="-412.034" x2="-411.857" y1="249.251" y2="238.892" gradientUnits="userSpaceOnUse" gradientTransform="matrix(1 0 0 -1 279.123 1082.674)"><stop offset="0" stop-opacity=".35"/><stop offset="1" stop-opacity="0"/></linearGradient><path fill="url(#v)" d="M-248.9 835.6s140.9 4.6 161.6 5.3 41.1 4.9 49.1 3.5 20.4-3.5 21.1-7.4c.7-3.9-.4-7.2-.4-7.2l-57.2 1.5-174.2 4.3z"/><path fill="#333" fill-opacity=".6" d="M310.2 566.7h-24.3v-13.9h24.9l-.6 13.9z"/><path fill="#B3B3B3" fill-opacity=".6" d="M286.6 569.4v11.3h23.1v-11.3h-23.1zM286.2 552.2v-11h23.9v10.6l-23.9.4z"/><path fill="none" stroke="#4D4D4D" d="M305.6 541.9v38.8M300.7 541.7v37.9M291.6 542.3v38.1M296.2 541.6v39.3"/><path fill="#333" d="M310.2 564.9h-24.5v5.2h24.5v-5.2zM310.2 551.2H286v2.7h24.3l-.1-2.7zM309.2 542.8h-21.8v-6.4h22.4l-.6 6.4zM309.8 578.9h-23.4v4.6h23.3l.1-4.6z"/><linearGradient id="w" x1="20.87" x2="20.864" y1="1027.095" y2="1031.396" gradientUnits="userSpaceOnUse" gradientTransform="matrix(1 0 0 -1 279.123 1391.942)"><stop offset="0" stop-color="#333"/><stop offset="1" stop-color="#333" stop-opacity="0"/></linearGradient><path fill="url(#w)" d="M311 365.2l2-4.7h-26.1l2.7 4.5 21.4.2z"/><linearGradient id="x" x1="-27.558" x2="-24.939" y1="665.649" y2="1045.122" gradientUnits="userSpaceOnUse" gradientTransform="matrix(1 0 0 -1 279.123 1391.942)"><stop offset="0" stop-color="#B3B3B3"/><stop offset="1" stop-color="#D9D9D9"/></linearGradient><path fill="url(#x)" d="M232.2 346.7l47.2 1-4.2 382.5h-48.9l5.9-383.5z"/><linearGradient id="y" x1="59.675" x2="59.953" y1="663.409" y2="1042.882" gradientUnits="userSpaceOnUse" gradientTransform="matrix(1 0 0 -1 279.123 1391.942)"><stop offset="0" stop-color="#B3B3B3"/><stop offset="1" stop-color="#D9D9D9"/></linearGradient><path fill="url(#y)" d="M317.2 347.4l47.6.7-3.1 382.1h-48.6l4.1-382.8z"/><linearGradient id="z" x1="2.491" x2="5.008" y1="663.824" y2="1037.576" gradientUnits="userSpaceOnUse" gradientTransform="matrix(1 0 0 -1 279.123 1391.942)"><stop offset="0" stop-color="#333"/><stop offset="1" stop-color="#535353"/></linearGradient><path fill="url(#z)" d="M275.4 730.2l11.3-4.5 3.6-352.9-11.1-18.7-3.8 376.1z"/><linearGradient id="A" x1="20.723" x2="20.71" y1="1024.1" y2="1027.565" gradientUnits="userSpaceOnUse" gradientTransform="matrix(1 0 0 -1 279.123 1391.942)"><stop offset="0" stop-color="#333"/><stop offset="1" stop-color="#333" stop-opacity="0"/></linearGradient><path fill="url(#A)" d="M290.2 367.8h19.9l.7-2.6-22-.5 1.4 3.1z"/><linearGradient id="B" x1="31.819" x2="34.285" y1="665.657" y2="1037.502" gradientUnits="userSpaceOnUse" gradientTransform="matrix(1 0 0 -1 279.123 1391.942)"><stop offset="0" stop-color="#333"/><stop offset="1" stop-color="#535353"/></linearGradient><path fill="url(#B)" d="M313.1 730.2l-5.9-5.9 3.1-350.5 7-17.5-4.2 373.9z"/><path fill="#999" d="M279.3 354.5l10.9 18.4V366l-10.8-18.2-.1 6.7z"/><path fill="#E6E6E6" d="M310.2 373.8l6.9-17.4.1-9-6.9 18.5-.1 7.9z"/><linearGradient id="C" x1="1715.894" x2="1716.184" y1="607.115" y2="614.348" gradientUnits="userSpaceOnUse" gradientTransform="matrix(1 0 0 -1 -1421.706 1337.7)"><stop offset="0" stop-color="#B4B4B4"/><stop offset="1" stop-color="#1A1A1A"/></linearGradient><path fill="url(#C)" d="M275.3 730.2l11.5-6.2 20.4.1 5.9 6.1h-37.8z"/></g><text transform="translate(237.51 409.792)" font-family="'MyriadPro-Regular'" font-size="38">Senado Federal</text><text transform="translate(781.61 410.78)" font-family="'MyriadPro-Regular'" font-size="37.922">Câmara dos Deputados</text></svg>