<svg xmlns="http://www.w3.org/2000/svg" version="1" xmlns:xlink="http://www.w3.org/1999/xlink" viewBox="-2100 -1470 4200 2940"><defs><path id="i" fill-rule="evenodd" d="M-31.5 0h33a30 30 0 0 0 30-30v-10a30 30 0 0 0-30-30h-33zm13-13h19a19 19 0 0 0 19-19v-6a19 19 0 0 0-19-19h-19z"/><path id="j" d="M-31.5 0h63v-13h-51v-18h40v-12h-40v-14h48v-13h-60z"/><path id="l" d="M-26.25 0h52.5v-12h-40.5v-16h33v-12h-33v-11H25v-12h-51.25z"/><g id="m"><clipPath id="b"><path d="M-31.5 0v-70h63V0zM0-47v12h31.5v-12z"/></clipPath><use xlink:href="#a" clip-path="url(#b)"/><path d="M5-35h26.5v10H5z"/><path d="M21.5-35h10V0h-10z"/></g><path id="k" d="M-31.5 0h12v-48l14 48h11l14-48V0h12v-70H14L0-22l-14-48h-17.5z"/><path id="a" fill-rule="evenodd" d="M0 0a31.5 35 0 0 0 0-70A31.5 35 0 0 0 0 0m0-13a18.5 22 0 0 0 0-44 18.5 22 0 0 0 0 44"/><path id="c" fill-rule="evenodd" d="M-31.5 0h13v-26h28a22 22 0 0 0 0-44h-40zm13-39h27a9 9 0 0 0 0-18h-27z"/><g id="h"><use xlink:href="#c"/><path d="M28 0c0-10 0-32-15-32H-6c22 0 22 22 22 32"/></g><path id="n" d="M-15.75-22C-15.75-15-9-11.5 1-11.5s14.74-3.25 14.75-7.75c0-14.25-46.75-5.25-46.5-30.25C-30.5-71-6-70 3-70s26 4 25.75 21.25H13.5c0-7.5-7-10.25-15-10.25-7.75 0-13.25 1.25-13.25 8.5-.25 11.75 46.25 4 46.25 28.75C31.5-3.5 13.5 0 0 0c-11.5 0-31.55-4.5-31.5-22z"/><g id="f" fill="#fff"><g id="e"><path id="d" d="M0-1l-.31.95.477.156"/><use xlink:href="#d" transform="scale(-1 1)"/></g><use xlink:href="#e" transform="rotate(72)"/><use xlink:href="#e" transform="rotate(-72)"/><use xlink:href="#e" transform="rotate(144)"/><use xlink:href="#e" transform="rotate(-144)"/></g><use id="o" xlink:href="#f" transform="scale(31.5)"/><use id="p" xlink:href="#f" transform="scale(26.25)"/><use id="r" xlink:href="#f" transform="scale(21)"/><use id="q" xlink:href="#f" transform="scale(15)"/><use id="s" xlink:href="#f" transform="scale(10.5)"/></defs><rect width="100%" height="100%" x="-50%" y="-50%" fill="#009b3a"/><path fill="#fedf00" d="M-1743 0L0 1113 1743 0 0-1113z"/><circle r="735" fill="#002776"/><clipPath id="g"><circle r="735"/></clipPath><path fill="#fff" d="M-2205 1470a1785 1785 0 0 1 3570 0h-105a1680 1680 0 1 0-3360 0z" clip-path="url(#g)"/><g fill="#009b3a" transform="translate(-420 1470)"><use y="-1697.5" xlink:href="#a" transform="rotate(-7)"/><use y="-1697.5" xlink:href="#h" transform="rotate(-4)"/><use y="-1697.5" xlink:href="#i" transform="rotate(-1)"/><use y="-1697.5" xlink:href="#j" transform="rotate(2)"/><use y="-1697.5" xlink:href="#k" transform="rotate(5)"/><use y="-1697.5" xlink:href="#l" transform="rotate(9.75)"/><use y="-1697.5" xlink:href="#c" transform="rotate(14.5)"/><use y="-1697.5" xlink:href="#h" transform="rotate(17.5)"/><use y="-1697.5" xlink:href="#a" transform="rotate(20.5)"/><use y="-1697.5" xlink:href="#m" transform="rotate(23.5)"/><use y="-1697.5" xlink:href="#h" transform="rotate(26.5)"/><use y="-1697.5" xlink:href="#j" transform="rotate(29.5)"/><use y="-1697.5" xlink:href="#n" transform="rotate(32.5)"/><use y="-1697.5" xlink:href="#n" transform="rotate(35.5)"/><use y="-1697.5" xlink:href="#a" transform="rotate(38.5)"/></g><use x="-600" y="-132" xlink:href="#o"/><use x="-535" y="177" xlink:href="#o"/><use x="-625" y="243" xlink:href="#p"/><use x="-463" y="132" xlink:href="#q"/><use x="-382" y="250" xlink:href="#p"/><use x="-404" y="323" xlink:href="#r"/><use x="228" y="-228" xlink:href="#o"/><use x="515" y="258" xlink:href="#o"/><use x="617" y="265" xlink:href="#r"/><use x="545" y="323" xlink:href="#p"/><use x="368" y="477" xlink:href="#p"/><use x="367" y="551" xlink:href="#r"/><use x="441" y="419" xlink:href="#r"/><use x="500" y="382" xlink:href="#p"/><use x="365" y="405" xlink:href="#r"/><use x="-280" y="30" xlink:href="#p"/><use x="200" y="-37" xlink:href="#r"/><use y="330" xlink:href="#o"/><use x="85" y="184" xlink:href="#p"/><use y="118" xlink:href="#p"/><use x="-74" y="184" xlink:href="#r"/><use x="-37" y="235" xlink:href="#q"/><use x="220" y="495" xlink:href="#p"/><use x="283" y="430" xlink:href="#r"/><use x="162" y="412" xlink:href="#r"/><use x="-295" y="390" xlink:href="#o"/><use y="575" xlink:href="#s"/></svg>